<?xml version="1.0" encoding="UTF-8" standalone="no"?>
<!DOCTYPE svg PUBLIC "-//W3C//DTD SVG 20010904//EN"
              "http://www.w3.org/TR/2001/REC-SVG-20010904/DTD/svg10.dtd">

<svg xmlns="http://www.w3.org/2000/svg"
     width="0.69448in" height="0.69448in"
     viewBox="0 0 100 100">
  <path id="Selection"
        fill="none" stroke="black" stroke-width="1"
        d="M 32.70,37.42
           C 34.17,35.74 47.75,30.65 50.00,30.65
             52.25,30.65 65.83,35.74 67.30,37.42
             71.92,42.69 69.00,49.47 62.00,51.00
             62.00,54.26 62.65,66.28 60.98,68.40
             59.63,70.10 56.95,69.96 55.00,70.00
             51.77,70.06 40.94,70.83 39.02,68.40
             37.35,66.28 38.00,54.26 38.00,51.00
             31.00,49.47 28.08,42.69 32.70,37.42 Z
           M 45.13,33.60
           C 43.17,35.00 42.18,36.99 41.00,39.00
             38.14,32.15 30.10,39.52 32.74,45.89
             33.70,48.21 35.57,49.42 38.01,49.73
             41.28,50.15 43.99,48.21 47.17,47.97
             57.28,47.20 59.91,51.77 64.77,48.82
             68.46,46.60 71.22,36.72 59.00,36.00
             59.00,36.00 58.00,39.00 58.00,39.00
             56.23,33.07 50.65,29.63 45.13,33.60 Z
           M 40.00,51.00
           C 40.00,51.00 40.00,62.00 40.00,62.00
             40.00,62.00 60.00,62.00 60.00,62.00
             60.00,62.00 60.00,51.00 60.00,51.00
             50.17,48.45 49.83,48.45 40.00,51.00 Z
           M 40.00,64.00
           C 40.00,64.00 40.00,68.00 40.00,68.00
             40.00,68.00 60.00,68.00 60.00,68.00
             60.00,68.00 60.00,64.00 60.00,64.00
             60.00,64.00 40.00,64.00 40.00,64.00 Z" />
</svg>
